<svg width="168" height="66" viewBox="0 0 168 66" fill="none" xmlns="http://www.w3.org/2000/svg">
<path d="M0 15.9998H13V48.4998C13 52.0896 10.0899 54.9998 6.5 54.9998C2.91015 54.9998 0 52.0896 0 48.4998V15.9998Z" fill="#0B7BD6"/>
<path d="M15.8662 26.1331H35.4661V27.333C35.4661 32.8559 30.989 37.333 25.4662 37.333H15.8662V26.1331Z" fill="#0B7BD6"/>
<path d="M35.4648 17.0178L35.467 26.5935L23.3365 26.5963L23.3343 17.0206L35.4648 17.0178Z" fill="#0B7BD6"/>
<rect x="23" y="12.2046" width="12.5563" height="12.1333" rx="2" transform="rotate(-76.4085 23 12.2046)" fill="#00C1D8"/>
<path d="M0 13.9998C0 8.47691 4.47715 3.99976 10 3.99976H21V15.9998H0L0 13.9998Z" fill="#0B7BD6"/>
<path d="M45.7 24.95C44.3 24.95 43.2167 24.6333 42.45 24C41.7167 23.3333 41.35 22.4 41.35 21.2C41.35 19.9667 41.7167 19.0333 42.45 18.4C43.2167 17.7333 44.3 17.4 45.7 17.4C48.5667 17.4 50 18.6667 50 21.2C50 23.7 48.5667 24.95 45.7 24.95ZM45.7 54.4C44.4667 54.4 43.5167 54.05 42.85 53.35C42.2167 52.6167 41.9 51.6 41.9 50.3V33.2C41.9 30.4333 43.1667 29.05 45.7 29.05C46.9 29.05 47.8167 29.4167 48.45 30.15C49.1167 30.85 49.45 31.8667 49.45 33.2V50.3C49.45 51.6 49.1333 52.6167 48.5 53.35C47.8667 54.05 46.9333 54.4 45.7 54.4ZM59.0789 54.45C56.5456 54.45 55.2789 53.1667 55.2789 50.6V32.85C55.2789 30.3167 56.5122 29.05 58.9789 29.05C61.4456 29.05 62.6789 30.3167 62.6789 32.85V33.05C63.5122 31.7167 64.6289 30.7 66.0289 30C67.4289 29.3 68.9956 28.95 70.7289 28.95C73.6289 28.95 75.7956 29.8 77.2289 31.5C78.6622 33.1667 79.3789 35.75 79.3789 39.25V50.6C79.3789 53.1667 78.1122 54.45 75.5789 54.45C74.3789 54.45 73.4456 54.1167 72.7789 53.45C72.1456 52.7833 71.8289 51.8333 71.8289 50.6V39.6C71.8289 37.9 71.5122 36.6833 70.8789 35.95C70.2456 35.1833 69.3122 34.8 68.0789 34.8C66.4789 34.8 65.1956 35.3 64.2289 36.3C63.2956 37.3 62.8289 38.6333 62.8289 40.3V50.6C62.8289 53.1667 61.5789 54.45 59.0789 54.45ZM96.9652 54.55C94.2986 54.55 91.9652 54.0333 89.9652 53C87.9986 51.9333 86.4819 50.4333 85.4152 48.5C84.3486 46.5667 83.8152 44.2833 83.8152 41.65C83.8152 39.0167 84.3486 36.75 85.4152 34.85C86.4819 32.95 87.9986 31.5 89.9652 30.5C91.9652 29.4667 94.2986 28.95 96.9652 28.95C97.9986 28.95 99.0986 29.0833 100.265 29.35C101.465 29.5833 102.615 30 103.715 30.6C104.549 31 105.065 31.5667 105.265 32.3C105.465 33 105.415 33.7 105.115 34.4C104.849 35.1 104.399 35.6167 103.765 35.95C103.165 36.25 102.449 36.1833 101.615 35.75C100.282 35.05 98.9819 34.7 97.7152 34.7C95.7486 34.7 94.2152 35.3167 93.1152 36.55C92.0486 37.75 91.5152 39.4667 91.5152 41.7C91.5152 43.9 92.0486 45.6333 93.1152 46.9C94.2152 48.1333 95.7486 48.75 97.7152 48.75C98.3152 48.75 98.9486 48.6833 99.6152 48.55C100.282 48.3833 100.949 48.1167 101.615 47.75C102.449 47.3167 103.165 47.2667 103.765 47.6C104.399 47.9333 104.832 48.45 105.065 49.15C105.299 49.8167 105.315 50.5167 105.115 51.25C104.915 51.9833 104.415 52.55 103.615 52.95C102.482 53.5167 101.349 53.9167 100.215 54.15C99.0819 54.4167 97.9986 54.55 96.9652 54.55ZM112.692 54.45C110.159 54.45 108.892 53.1667 108.892 50.6V22.15C108.892 19.5833 110.159 18.3 112.692 18.3C115.192 18.3 116.442 19.5833 116.442 22.15V32.8C117.309 31.5333 118.426 30.5833 119.792 29.95C121.159 29.2833 122.676 28.95 124.342 28.95C130.109 28.95 132.992 32.3833 132.992 39.25V50.6C132.992 53.1667 131.726 54.45 129.192 54.45C127.992 54.45 127.059 54.1167 126.392 53.45C125.759 52.7833 125.442 51.8333 125.442 50.6V39.6C125.442 37.9 125.126 36.6833 124.492 35.95C123.859 35.1833 122.926 34.8 121.692 34.8C120.092 34.8 118.809 35.3 117.842 36.3C116.909 37.3 116.442 38.6333 116.442 40.3V50.6C116.442 53.1667 115.192 54.45 112.692 54.45Z" fill="#0B7BD6"/>
</svg>
